<mxfile host="app.diagrams.net" modified="2024-01-23T03:43:26.945Z" agent="Mozilla/5.0 (Windows NT 10.0; Win64; x64) AppleWebKit/537.36 (KHTML, like Gecko) Chrome/120.0.0.0 Safari/537.36" etag="5X-DNH7sk3XEOTOA79HW" version="22.1.17" type="github">
  <diagram name="Page-1" id="TU6_HEHbgt6ybrDFPS7l">
    <mxGraphModel dx="1114" dy="603" grid="1" gridSize="10" guides="1" tooltips="1" connect="1" arrows="1" fold="1" page="1" pageScale="1" pageWidth="850" pageHeight="1100" math="0" shadow="0">
      <root>
        <mxCell id="0" />
        <mxCell id="1" parent="0" />
        <mxCell id="t8BBSRWHAoElBizVuhs3-4" value="" style="edgeStyle=orthogonalEdgeStyle;rounded=0;orthogonalLoop=1;jettySize=auto;html=1;" edge="1" parent="1" source="t8BBSRWHAoElBizVuhs3-1" target="t8BBSRWHAoElBizVuhs3-3">
          <mxGeometry relative="1" as="geometry" />
        </mxCell>
        <mxCell id="t8BBSRWHAoElBizVuhs3-1" value="Start" style="strokeWidth=2;html=1;shape=mxgraph.flowchart.terminator;whiteSpace=wrap;" vertex="1" parent="1">
          <mxGeometry x="340" y="7" width="70" height="30" as="geometry" />
        </mxCell>
        <mxCell id="t8BBSRWHAoElBizVuhs3-6" value="" style="edgeStyle=orthogonalEdgeStyle;rounded=0;orthogonalLoop=1;jettySize=auto;html=1;" edge="1" parent="1" source="t8BBSRWHAoElBizVuhs3-3" target="t8BBSRWHAoElBizVuhs3-5">
          <mxGeometry relative="1" as="geometry" />
        </mxCell>
        <mxCell id="t8BBSRWHAoElBizVuhs3-3" value="Username = &quot;Admin&quot;, Password = &quot;0000&quot;,&amp;nbsp;database_buku = [&lt;div&gt;&amp;nbsp; &amp;nbsp; [&quot;Judul 1&quot;, &quot;Penulis 1&quot;, &quot;Tahun 1&quot;, &quot;(Tersedia)&quot;, &quot;&quot;, &quot;&quot;]&lt;/div&gt;&lt;div&gt;]&lt;/div&gt;" style="shape=hexagon;perimeter=hexagonPerimeter2;whiteSpace=wrap;html=1;fixedSize=1;strokeWidth=2;" vertex="1" parent="1">
          <mxGeometry x="257" y="72" width="235" height="80" as="geometry" />
        </mxCell>
        <mxCell id="t8BBSRWHAoElBizVuhs3-8" value="" style="edgeStyle=orthogonalEdgeStyle;rounded=0;orthogonalLoop=1;jettySize=auto;html=1;" edge="1" parent="1" source="t8BBSRWHAoElBizVuhs3-5" target="t8BBSRWHAoElBizVuhs3-7">
          <mxGeometry relative="1" as="geometry" />
        </mxCell>
        <mxCell id="t8BBSRWHAoElBizVuhs3-5" value="print(&quot;program perpustakaan\n 1. Login sebagai user\n 2. Login sebagai admin&quot;),&amp;nbsp;" style="shape=parallelogram;perimeter=parallelogramPerimeter;whiteSpace=wrap;html=1;fixedSize=1;strokeWidth=2;" vertex="1" parent="1">
          <mxGeometry x="252.5" y="173" width="245.5" height="45" as="geometry" />
        </mxCell>
        <mxCell id="t8BBSRWHAoElBizVuhs3-10" value="" style="edgeStyle=orthogonalEdgeStyle;rounded=0;orthogonalLoop=1;jettySize=auto;html=1;" edge="1" parent="1" source="t8BBSRWHAoElBizVuhs3-7" target="t8BBSRWHAoElBizVuhs3-9">
          <mxGeometry relative="1" as="geometry" />
        </mxCell>
        <mxCell id="t8BBSRWHAoElBizVuhs3-7" value="input(&quot;masukkan pilihan&quot;)" style="whiteSpace=wrap;html=1;strokeWidth=2;" vertex="1" parent="1">
          <mxGeometry x="315.25" y="255.5" width="120" height="60" as="geometry" />
        </mxCell>
        <mxCell id="t8BBSRWHAoElBizVuhs3-12" value="" style="edgeStyle=orthogonalEdgeStyle;rounded=0;orthogonalLoop=1;jettySize=auto;html=1;" edge="1" parent="1">
          <mxGeometry relative="1" as="geometry">
            <mxPoint x="411.9402" y="365.79999999999995" as="sourcePoint" />
            <mxPoint x="489.3800000000001" y="365" as="targetPoint" />
          </mxGeometry>
        </mxCell>
        <mxCell id="t8BBSRWHAoElBizVuhs3-17" value="" style="edgeStyle=orthogonalEdgeStyle;rounded=0;orthogonalLoop=1;jettySize=auto;html=1;" edge="1" parent="1">
          <mxGeometry relative="1" as="geometry">
            <mxPoint x="375.45000000000005" y="416.99729096989967" as="sourcePoint" />
            <mxPoint x="375.04999999999995" y="448.06" as="targetPoint" />
          </mxGeometry>
        </mxCell>
        <mxCell id="t8BBSRWHAoElBizVuhs3-9" value="pilihan == 1" style="rhombus;whiteSpace=wrap;html=1;strokeWidth=2;" vertex="1" parent="1">
          <mxGeometry x="337.25" y="354.5" width="74.75" height="62.5" as="geometry" />
        </mxCell>
        <mxCell id="t8BBSRWHAoElBizVuhs3-14" value="" style="edgeStyle=orthogonalEdgeStyle;rounded=0;orthogonalLoop=1;jettySize=auto;html=1;" edge="1" parent="1">
          <mxGeometry relative="1" as="geometry">
            <mxPoint x="570" y="365" as="sourcePoint" />
            <mxPoint x="614.31" y="365.5" as="targetPoint" />
          </mxGeometry>
        </mxCell>
        <mxCell id="t8BBSRWHAoElBizVuhs3-11" value="pilihan = 2" style="rhombus;whiteSpace=wrap;html=1;strokeWidth=2;" vertex="1" parent="1">
          <mxGeometry x="489.38" y="351" width="80.62" height="68" as="geometry" />
        </mxCell>
        <mxCell id="t8BBSRWHAoElBizVuhs3-13" value="print &quot;pilihan yang anda masukan salah&quot;" style="shape=parallelogram;perimeter=parallelogramPerimeter;whiteSpace=wrap;html=1;fixedSize=1;strokeWidth=2;" vertex="1" parent="1">
          <mxGeometry x="604.31" y="359" width="169.69" height="53" as="geometry" />
        </mxCell>
        <mxCell id="t8BBSRWHAoElBizVuhs3-15" value="" style="endArrow=classic;html=1;rounded=0;exitX=1;exitY=0.5;exitDx=0;exitDy=0;entryX=1;entryY=0.5;entryDx=0;entryDy=0;" edge="1" parent="1" source="t8BBSRWHAoElBizVuhs3-13" target="t8BBSRWHAoElBizVuhs3-5">
          <mxGeometry width="50" height="50" relative="1" as="geometry">
            <mxPoint x="780" y="388" as="sourcePoint" />
            <mxPoint x="830" y="208" as="targetPoint" />
            <Array as="points">
              <mxPoint x="830" y="386" />
              <mxPoint x="830" y="198" />
            </Array>
          </mxGeometry>
        </mxCell>
        <mxCell id="t8BBSRWHAoElBizVuhs3-19" value="" style="edgeStyle=orthogonalEdgeStyle;rounded=0;orthogonalLoop=1;jettySize=auto;html=1;" edge="1" parent="1" target="t8BBSRWHAoElBizVuhs3-18">
          <mxGeometry relative="1" as="geometry">
            <mxPoint x="374.29999999999995" y="488" as="sourcePoint" />
          </mxGeometry>
        </mxCell>
        <mxCell id="t8BBSRWHAoElBizVuhs3-16" value="&lt;font style=&quot;font-size: 10px;&quot;&gt;print &quot;menu perpustakaan\n 1. lihat daftar buku\n 2. peminjaman buku\n3. pengembalian buku\n 4. logout&lt;/font&gt;" style="shape=parallelogram;perimeter=parallelogramPerimeter;whiteSpace=wrap;html=1;fixedSize=1;strokeWidth=2;" vertex="1" parent="1">
          <mxGeometry x="251.51" y="448" width="245.49" height="60" as="geometry" />
        </mxCell>
        <mxCell id="t8BBSRWHAoElBizVuhs3-21" value="" style="edgeStyle=orthogonalEdgeStyle;rounded=0;orthogonalLoop=1;jettySize=auto;html=1;" edge="1" parent="1" source="t8BBSRWHAoElBizVuhs3-18" target="t8BBSRWHAoElBizVuhs3-20">
          <mxGeometry relative="1" as="geometry" />
        </mxCell>
        <mxCell id="t8BBSRWHAoElBizVuhs3-18" value="pilihan_menu= input(&quot;Silahkan pilih menu&quot;)" style="shape=parallelogram;perimeter=parallelogramPerimeter;whiteSpace=wrap;html=1;fixedSize=1;strokeWidth=2;" vertex="1" parent="1">
          <mxGeometry x="294.44" y="528" width="161.56" height="60" as="geometry" />
        </mxCell>
        <mxCell id="t8BBSRWHAoElBizVuhs3-27" value="" style="edgeStyle=orthogonalEdgeStyle;rounded=0;orthogonalLoop=1;jettySize=auto;html=1;" edge="1" parent="1" source="t8BBSRWHAoElBizVuhs3-20" target="t8BBSRWHAoElBizVuhs3-26">
          <mxGeometry relative="1" as="geometry" />
        </mxCell>
        <mxCell id="t8BBSRWHAoElBizVuhs3-39" value="" style="edgeStyle=orthogonalEdgeStyle;rounded=0;orthogonalLoop=1;jettySize=auto;html=1;" edge="1" parent="1" source="t8BBSRWHAoElBizVuhs3-20" target="t8BBSRWHAoElBizVuhs3-38">
          <mxGeometry relative="1" as="geometry" />
        </mxCell>
        <mxCell id="t8BBSRWHAoElBizVuhs3-20" value="pilihan_menu == 1" style="rhombus;whiteSpace=wrap;html=1;strokeWidth=2;" vertex="1" parent="1">
          <mxGeometry x="335.22" y="658" width="80" height="80" as="geometry" />
        </mxCell>
        <mxCell id="t8BBSRWHAoElBizVuhs3-29" value="" style="edgeStyle=orthogonalEdgeStyle;rounded=0;orthogonalLoop=1;jettySize=auto;html=1;" edge="1" parent="1" source="t8BBSRWHAoElBizVuhs3-26" target="t8BBSRWHAoElBizVuhs3-28">
          <mxGeometry relative="1" as="geometry" />
        </mxCell>
        <mxCell id="t8BBSRWHAoElBizVuhs3-26" value="pilihan_menu == 2" style="rhombus;whiteSpace=wrap;html=1;strokeWidth=2;" vertex="1" parent="1">
          <mxGeometry x="456" y="658" width="74.78" height="80" as="geometry" />
        </mxCell>
        <mxCell id="t8BBSRWHAoElBizVuhs3-31" value="" style="edgeStyle=orthogonalEdgeStyle;rounded=0;orthogonalLoop=1;jettySize=auto;html=1;" edge="1" parent="1" source="t8BBSRWHAoElBizVuhs3-28" target="t8BBSRWHAoElBizVuhs3-30">
          <mxGeometry relative="1" as="geometry" />
        </mxCell>
        <mxCell id="t8BBSRWHAoElBizVuhs3-28" value="pilihan_menu == 3" style="rhombus;whiteSpace=wrap;html=1;strokeWidth=2;" vertex="1" parent="1">
          <mxGeometry x="570" y="663" width="64.78" height="70" as="geometry" />
        </mxCell>
        <mxCell id="t8BBSRWHAoElBizVuhs3-35" value="" style="edgeStyle=orthogonalEdgeStyle;rounded=0;orthogonalLoop=1;jettySize=auto;html=1;" edge="1" parent="1" source="t8BBSRWHAoElBizVuhs3-30" target="t8BBSRWHAoElBizVuhs3-34">
          <mxGeometry relative="1" as="geometry" />
        </mxCell>
        <mxCell id="t8BBSRWHAoElBizVuhs3-30" value="pilihan menu== 4" style="rhombus;whiteSpace=wrap;html=1;strokeWidth=2;" vertex="1" parent="1">
          <mxGeometry x="680" y="668" width="52.83" height="60" as="geometry" />
        </mxCell>
        <mxCell id="t8BBSRWHAoElBizVuhs3-34" value="print &quot;nomor yang anda masukkan tidak valid" style="shape=parallelogram;perimeter=parallelogramPerimeter;whiteSpace=wrap;html=1;fixedSize=1;strokeWidth=2;" vertex="1" parent="1">
          <mxGeometry x="779.24" y="668" width="160.76" height="60" as="geometry" />
        </mxCell>
        <mxCell id="t8BBSRWHAoElBizVuhs3-36" value="" style="endArrow=classic;html=1;rounded=0;exitX=1;exitY=0.5;exitDx=0;exitDy=0;entryX=1;entryY=0.5;entryDx=0;entryDy=0;" edge="1" parent="1" source="t8BBSRWHAoElBizVuhs3-34" target="t8BBSRWHAoElBizVuhs3-18">
          <mxGeometry width="50" height="50" relative="1" as="geometry">
            <mxPoint x="990" y="718" as="sourcePoint" />
            <mxPoint x="1040" y="668" as="targetPoint" />
            <Array as="points">
              <mxPoint x="1070" y="700" />
              <mxPoint x="1070" y="558" />
            </Array>
          </mxGeometry>
        </mxCell>
        <mxCell id="t8BBSRWHAoElBizVuhs3-37" value="" style="endArrow=classic;html=1;rounded=0;exitX=0.5;exitY=1;exitDx=0;exitDy=0;" edge="1" parent="1" source="t8BBSRWHAoElBizVuhs3-30" target="t8BBSRWHAoElBizVuhs3-5">
          <mxGeometry width="50" height="50" relative="1" as="geometry">
            <mxPoint x="730" y="798" as="sourcePoint" />
            <mxPoint x="780" y="748" as="targetPoint" />
            <Array as="points">
              <mxPoint x="706" y="778" />
              <mxPoint x="960" y="778" />
              <mxPoint x="960" y="198" />
            </Array>
          </mxGeometry>
        </mxCell>
        <mxCell id="t8BBSRWHAoElBizVuhs3-41" value="" style="edgeStyle=orthogonalEdgeStyle;rounded=0;orthogonalLoop=1;jettySize=auto;html=1;" edge="1" parent="1" source="t8BBSRWHAoElBizVuhs3-38" target="t8BBSRWHAoElBizVuhs3-40">
          <mxGeometry relative="1" as="geometry">
            <mxPoint x="380" y="880" as="targetPoint" />
          </mxGeometry>
        </mxCell>
        <mxCell id="t8BBSRWHAoElBizVuhs3-38" value="for i, buku in database_buku" style="shape=hexagon;perimeter=hexagonPerimeter2;whiteSpace=wrap;html=1;fixedSize=1;strokeWidth=2;" vertex="1" parent="1">
          <mxGeometry x="314.26000000000005" y="778" width="120" height="80" as="geometry" />
        </mxCell>
        <mxCell id="t8BBSRWHAoElBizVuhs3-43" value="" style="edgeStyle=orthogonalEdgeStyle;rounded=0;orthogonalLoop=1;jettySize=auto;html=1;exitX=0.5;exitY=1;exitDx=0;exitDy=0;entryX=0.5;entryY=0;entryDx=0;entryDy=0;" edge="1" parent="1" source="t8BBSRWHAoElBizVuhs3-40" target="t8BBSRWHAoElBizVuhs3-42">
          <mxGeometry relative="1" as="geometry">
            <mxPoint x="370" y="970" as="sourcePoint" />
            <mxPoint x="374.29999999999995" y="1001" as="targetPoint" />
          </mxGeometry>
        </mxCell>
        <mxCell id="t8BBSRWHAoElBizVuhs3-40" value="&lt;font style=&quot;font-size: 11px;&quot;&gt;&amp;nbsp;print(&quot;%d. Judul: %s, Penulis: %s, Tahun: %s, %s&quot; %(i, buku[0], buku[1], buku[2], buku[3]))&lt;/font&gt;" style="shape=parallelogram;perimeter=parallelogramPerimeter;whiteSpace=wrap;html=1;fixedSize=1;strokeWidth=2;" vertex="1" parent="1">
          <mxGeometry x="271.38" y="880" width="205.74" height="70" as="geometry" />
        </mxCell>
        <mxCell id="t8BBSRWHAoElBizVuhs3-46" value="" style="edgeStyle=orthogonalEdgeStyle;rounded=0;orthogonalLoop=1;jettySize=auto;html=1;" edge="1" parent="1" source="t8BBSRWHAoElBizVuhs3-42" target="t8BBSRWHAoElBizVuhs3-45">
          <mxGeometry relative="1" as="geometry" />
        </mxCell>
        <mxCell id="t8BBSRWHAoElBizVuhs3-42" value="balik_menu = input (&quot;silahkan klik enter untuk kembali ke menu&quot;" style="shape=parallelogram;perimeter=parallelogramPerimeter;whiteSpace=wrap;html=1;fixedSize=1;strokeWidth=2;" vertex="1" parent="1">
          <mxGeometry x="256.99999999999994" y="970" width="229.8" height="50" as="geometry" />
        </mxCell>
        <mxCell id="t8BBSRWHAoElBizVuhs3-45" value="balik menu== &quot;&quot;" style="rhombus;whiteSpace=wrap;html=1;strokeWidth=2;" vertex="1" parent="1">
          <mxGeometry x="308.88" y="1048" width="125.38" height="50" as="geometry" />
        </mxCell>
        <mxCell id="t8BBSRWHAoElBizVuhs3-47" value="" style="endArrow=classic;html=1;rounded=0;exitX=1;exitY=0.5;exitDx=0;exitDy=0;entryX=1;entryY=0.5;entryDx=0;entryDy=0;" edge="1" parent="1" source="t8BBSRWHAoElBizVuhs3-45" target="t8BBSRWHAoElBizVuhs3-16">
          <mxGeometry width="50" height="50" relative="1" as="geometry">
            <mxPoint x="540" y="1040" as="sourcePoint" />
            <mxPoint x="590" y="990" as="targetPoint" />
            <Array as="points">
              <mxPoint x="1120" y="1073" />
              <mxPoint x="1120" y="480" />
            </Array>
          </mxGeometry>
        </mxCell>
      </root>
    </mxGraphModel>
  </diagram>
</mxfile>
